<?xml version="1.0" standalone="no"?>
<!DOCTYPE svg PUBLIC "-//W3C//DTD SVG 20010904//EN"
 "http://www.w3.org/TR/2001/REC-SVG-20010904/DTD/svg10.dtd">
<svg version="1.0" xmlns="http://www.w3.org/2000/svg"
 width="240.000000pt" height="240.000000pt" viewBox="0 0 240.000000 240.000000"
 preserveAspectRatio="xMidYMid meet">
<metadata>
Created by potrace 1.14, written by Peter Selinger 2001-2017
</metadata>
<g transform="translate(0.000000,240.000000) scale(0.100000,-0.100000)"
fill="#000000" stroke="none">
<path d="M1260 2070 c-51 -10 -118 -49 -167 -96 -23 -22 -45 -35 -47 -30 -2 6
-5 3 -5 -6 -1 -16 -7 -20 -27 -17 -4 0 -11 -5 -15 -13 -7 -10 -9 -10 -9 0 0 6
-4 12 -10 12 -5 0 -9 -5 -7 -11 1 -6 -7 -16 -18 -22 -58 -34 -114 -74 -143
-104 -19 -18 -39 -30 -45 -26 -5 3 -7 2 -4 -4 3 -5 -1 -20 -10 -32 -12 -18
-17 -20 -25 -10 -8 11 -9 11 -5 -1 2 -8 -2 -27 -10 -42 -14 -29 -26 -39 -17
-14 3 8 1 16 -4 20 -5 3 -8 -8 -7 -25 1 -16 -9 -51 -21 -77 -13 -26 -28 -60
-34 -75 -6 -18 -14 -26 -22 -21 -10 5 -10 4 -2 -5 8 -9 7 -24 -4 -56 -8 -25
-17 -45 -21 -45 -4 0 -8 -11 -9 -25 -2 -32 -27 -92 -46 -110 -8 -8 -16 -19
-18 -25 -2 -6 -13 -12 -26 -13 -12 0 -22 -4 -22 -8 0 -10 -59 -29 -91 -29 -15
0 -31 -4 -34 -10 -3 -5 -2 -10 4 -10 6 0 18 -14 26 -31 9 -17 19 -28 22 -25 3
3 0 14 -8 23 -11 15 -11 16 1 6 8 -7 22 -13 33 -13 10 0 16 -4 13 -9 -3 -5 33
-8 83 -7 49 0 86 -1 83 -4 -24 -18 -33 -62 -29 -136 7 -101 8 -104 24 -104 7
0 13 -5 13 -11 0 -6 11 -20 25 -31 14 -11 22 -24 19 -30 -4 -6 -2 -8 4 -5 20
13 38 -4 39 -36 0 -58 7 -87 21 -87 11 0 13 -15 8 -77 -3 -43 -6 -86 -6 -95
-1 -10 -4 -18 -8 -18 -4 0 -8 -10 -8 -22 -1 -13 -6 -43 -11 -68 -7 -37 -13
-44 -28 -42 -11 2 -16 -1 -10 -5 14 -11 17 -33 5 -33 -5 0 -10 -9 -10 -19 0
-30 -11 -52 -23 -44 -6 3 -7 1 -3 -5 3 -6 -12 -39 -34 -73 -22 -34 -40 -56
-40 -49 0 20 -13 2 -17 -23 -2 -12 -8 -24 -13 -25 -6 -2 -15 -12 -20 -23 -11
-19 4 -19 744 -19 l755 0 -25 37 c-14 21 -29 40 -34 43 -4 3 -10 16 -11 30 -2
14 -12 32 -22 40 -15 13 -22 34 -26 83 -1 4 -8 7 -16 7 -8 0 -15 6 -15 14 0 8
-7 22 -16 30 -8 9 -12 20 -9 26 3 5 2 10 -2 10 -5 0 -7 16 -5 35 4 30 1 35
-17 35 -15 0 -23 10 -31 41 -7 23 -9 51 -7 61 4 14 1 18 -8 14 -16 -6 -25 14
-25 55 0 16 -5 38 -12 49 -22 35 27 92 75 84 9 -1 17 4 17 12 0 14 11 18 40
15 12 -2 12 0 2 7 -11 7 -6 15 20 33 18 13 40 23 48 22 9 -2 10 0 3 3 -7 3
-13 10 -13 15 0 6 5 7 12 3 7 -4 8 -3 4 4 -9 16 25 73 38 65 6 -4 6 0 -1 8 -8
10 -9 20 -2 29 8 13 10 13 18 0 5 -8 7 -18 4 -24 -4 -5 -1 -6 6 -1 18 11 61
-34 61 -64 0 -16 3 -21 8 -14 5 8 15 3 31 -18 16 -20 32 -29 52 -29 31 0 40
23 15 37 -8 4 -16 15 -18 23 -2 8 -11 23 -20 34 -10 10 -15 23 -11 29 3 5 9 3
14 -4 6 -10 9 -10 9 -2 0 6 -5 15 -10 18 -6 4 -8 11 -4 16 3 6 -2 9 -12 7 -13
-2 -18 2 -16 13 1 9 -5 20 -14 23 -9 4 -14 13 -10 21 3 8 1 15 -4 15 -6 0 -10
27 -10 60 0 60 6 70 28 48 6 -6 30 -13 52 -15 46 -5 53 12 20 42 -11 10 -18
20 -15 23 3 3 -4 12 -15 19 -25 18 -93 161 -86 180 3 7 0 13 -5 13 -6 0 -9 9
-6 20 3 11 2 18 -3 15 -6 -4 -24 71 -20 84 1 2 -4 7 -10 11 -6 4 -14 26 -17
48 -3 23 -9 39 -13 37 -8 -5 -55 84 -52 98 2 5 -2 6 -8 2 -5 -3 -10 -2 -10 3
0 5 -20 31 -45 57 -24 27 -41 53 -38 58 4 6 0 8 -9 5 -8 -4 -20 2 -27 14 -7
11 -15 17 -18 14 -3 -3 -12 2 -20 12 -8 9 -12 11 -8 5 4 -9 1 -11 -10 -7 -9 4
-14 13 -11 20 3 8 0 11 -10 7 -8 -3 -24 3 -34 12 -11 10 -20 14 -20 9 -1 -5
-10 2 -20 15 -11 13 -20 19 -20 13 0 -12 -61 7 -71 22 -4 5 -11 6 -15 3 -5 -2
-38 1 -74 9 -36 7 -84 14 -107 14 -23 0 -48 3 -57 6 -18 7 -10 34 11 34 9 0
13 6 9 15 -3 8 -2 15 3 15 5 0 9 11 9 25 0 14 -1 24 -2 24 0 -1 -17 -5 -36 -9z
m-20 -48 c0 -5 -8 -17 -17 -28 -10 -10 -20 -30 -21 -44 -2 -14 -8 -27 -14 -29
-6 -2 -5 -7 3 -11 9 -6 10 -12 1 -22 -11 -14 -10 -82 1 -128 4 -14 4 -19 1
-12 -3 6 -11 12 -17 12 -15 1 -57 35 -57 47 0 4 -9 14 -20 21 -28 17 -28 88 0
97 11 3 19 11 17 17 -1 6 9 15 23 19 14 4 21 7 16 8 -15 2 41 41 58 41 9 0 16
5 16 10 0 6 2 10 5 10 3 0 5 -4 5 -8z m95 -281 c3 -5 -6 -22 -19 -38 l-25 -28
-26 28 c-14 15 -21 27 -16 27 5 0 16 3 25 6 12 5 16 0 17 -17 1 -22 3 -20 14
19 5 14 21 16 30 3z m-136 -417 c1 -27 -9 -62 -29 -100 -16 -32 -30 -62 -30
-66 0 -31 136 47 191 109 16 19 33 32 37 28 4 -4 7 -33 7 -66 0 -54 2 -59 22
-59 21 0 113 91 113 112 0 5 5 6 11 2 10 -6 8 -63 -8 -151 -6 -39 13 -45 42
-13 26 29 35 10 35 -72 0 -108 -19 -220 -41 -240 -24 -20 -129 -56 -186 -62
l-43 -5 14 27 c31 63 -1 160 -74 226 l-42 38 -82 -4 c-76 -3 -86 -6 -129 -38
-58 -45 -81 -93 -74 -155 4 -26 11 -53 18 -61 15 -19 4 -18 -69 7 -179 60
-229 262 -88 355 28 18 31 25 28 62 l-2 42 47 -36 48 -36 13 53 c13 53 78 162
97 163 5 1 12 -14 16 -33 4 -18 14 -40 23 -49 22 -22 52 -4 91 53 34 50 43 43
44 -31z m629 34 c18 -18 15 -75 -4 -82 -33 -13 -64 -6 -80 19 -15 23 -15 27 0
50 18 27 63 34 84 13z m-591 -385 c34 -30 83 -114 83 -144 0 -30 -21 -66 -46
-79 -28 -15 -232 -7 -264 10 -42 23 -62 98 -38 143 32 61 95 96 173 97 52 0
65 -4 92 -27z m-408 -272 l73 -20 -5 25 c-4 23 -2 25 27 19 17 -4 49 -12 71
-18 55 -15 52 -14 130 -27 38 -6 72 -14 75 -18 3 -4 16 -8 30 -9 159 -15 203
-23 217 -40 8 -10 12 -12 8 -5 -8 15 12 16 53 1 l31 -11 -35 -61 c-19 -34 -38
-61 -44 -60 -5 2 -7 -4 -4 -12 4 -8 1 -15 -5 -15 -6 0 -8 -6 -5 -14 3 -7 -2
-21 -11 -29 -8 -9 -14 -22 -13 -29 4 -19 -40 -22 -86 -4 -22 8 -70 20 -106 26
-36 7 -69 15 -75 19 -5 5 -23 11 -40 15 -33 8 -135 55 -135 62 0 3 5 2 12 -2
7 -4 8 -3 4 4 -4 6 -14 8 -23 5 -9 -4 -14 -2 -10 3 3 6 -3 11 -14 11 -25 2
-51 22 -43 34 3 5 -2 6 -11 3 -9 -4 -24 1 -35 11 -10 9 -33 25 -52 35 -18 10
-32 23 -30 30 1 6 -2 9 -7 6 -14 -9 -51 43 -51 70 0 26 -2 26 109 -5z m968
-336 c0 -8 -4 -12 -9 -9 -4 3 -8 9 -8 15 0 5 4 9 8 9 5 0 9 -7 9 -15z"/>
<path d="M995 1150 c-4 -21 -3 -45 1 -51 11 -19 34 20 34 58 0 48 -26 43 -35
-7z"/>
<path d="M1271 1154 c-15 -54 -14 -84 3 -84 9 0 16 17 21 51 9 65 -9 89 -24
33z"/>
<path d="M1770 1320 c0 -13 7 -20 20 -20 13 0 20 7 20 20 0 13 -7 20 -20 20
-13 0 -20 -7 -20 -20z"/>
<path d="M643 1585 c0 -8 4 -12 9 -9 4 3 8 9 8 15 0 5 -4 9 -8 9 -5 0 -9 -7
-9 -15z"/>
<path d="M2095 1190 c3 -5 8 -10 11 -10 2 0 4 5 4 10 0 6 -5 10 -11 10 -5 0
-7 -4 -4 -10z"/>
<path d="M606 783 c5 -5 12 -12 16 -18 4 -6 8 -2 8 8 0 9 -7 17 -17 17 -9 0
-12 -3 -7 -7z"/>
<path d="M680 495 c0 -8 4 -15 10 -15 5 0 7 7 4 15 -4 8 -8 15 -10 15 -2 0 -4
-7 -4 -15z"/>
<path d="M1785 410 c3 -5 8 -10 11 -10 2 0 4 5 4 10 0 6 -5 10 -11 10 -5 0 -7
-4 -4 -10z"/>
</g>
</svg>
