<svg version="1.1" xmlns="http://www.w3.org/2000/svg" xmlns:xlink="http://www.w3.org/1999/xlink" width="178.75059" height="141.48222" viewBox="0,0,178.75059,141.48222"><defs><linearGradient x1="180.99045" y1="184.48852" x2="180.99045" y2="252.92322" gradientUnits="userSpaceOnUse" id="color-1"><stop offset="0" stop-color="#f4e7ff"/><stop offset="1" stop-color="#eeeaf9"/></linearGradient><linearGradient x1="322.0891" y1="203.34222" x2="322.0891" y2="258.20173" gradientUnits="userSpaceOnUse" id="color-2"><stop offset="0" stop-color="#eeeafb"/><stop offset="1" stop-color="#ad77e7"/></linearGradient><linearGradient x1="248.96746" y1="134.90269" x2="248.96746" y2="264.88917" gradientUnits="userSpaceOnUse" id="color-3"><stop offset="0" stop-color="#eeeafa"/><stop offset="1" stop-color="#ece9fc"/></linearGradient><linearGradient x1="156.45818" y1="144.34647" x2="207.02531" y2="164.89466" gradientUnits="userSpaceOnUse" id="color-4"><stop offset="0" stop-color="#ececf6"/><stop offset="1" stop-color="#ececf6"/></linearGradient><linearGradient x1="172.70581" y1="207.70688" x2="187.30002" y2="178.30499" gradientUnits="userSpaceOnUse" id="color-5"><stop offset="0" stop-color="#ebeaef"/><stop offset="1" stop-color="#b3c5cf"/></linearGradient><linearGradient x1="155.75616" y1="136.91807" x2="188.37439" y2="160.3783" gradientUnits="userSpaceOnUse" id="color-6"><stop offset="0" stop-color="#f1f1f5"/><stop offset="1" stop-color="#ececf6"/></linearGradient><linearGradient x1="185.67479" y1="161.78694" x2="204.52777" y2="175.34675" gradientUnits="userSpaceOnUse" id="color-7"><stop offset="0" stop-color="#ededf6"/><stop offset="1" stop-color="#bacfd9"/></linearGradient><linearGradient x1="315.62195" y1="213.69382" x2="315.62195" y2="240.86396" gradientUnits="userSpaceOnUse" id="color-8"><stop offset="0" stop-color="#e2d5f8"/><stop offset="1" stop-color="#f49def"/></linearGradient><linearGradient x1="319.31125" y1="232.60268" x2="319.31125" y2="240.50084" gradientUnits="userSpaceOnUse" id="color-9"><stop offset="0" stop-color="#efacf1"/><stop offset="1" stop-color="#c19aed"/></linearGradient><linearGradient x1="215.32446" y1="248.35987" x2="229.16727" y2="248.35987" gradientUnits="userSpaceOnUse" id="color-10"><stop offset="0" stop-color="#e4c4af"/><stop offset="1" stop-color="#e6c7b2"/></linearGradient><linearGradient x1="330.45131" y1="145.11395" x2="312.13954" y2="156.78172" gradientUnits="userSpaceOnUse" id="color-11"><stop offset="0" stop-color="#f1f1f9"/><stop offset="1" stop-color="#ecedf1"/></linearGradient><linearGradient x1="316.35402" y1="160.9156" x2="307.35819" y2="166.64756" gradientUnits="userSpaceOnUse" id="color-12"><stop offset="0" stop-color="#ebecf0"/><stop offset="1" stop-color="#bbccd3"/></linearGradient><linearGradient x1="321.48377" y1="176.66894" x2="321.48377" y2="205.73475" gradientUnits="userSpaceOnUse" id="color-13"><stop offset="0" stop-color="#c5d3d9"/><stop offset="1" stop-color="#f0f0f7"/></linearGradient><linearGradient x1="235.15934" y1="206.11849" x2="235.15934" y2="217.61987" gradientUnits="userSpaceOnUse" id="color-14"><stop offset="0" stop-color="#53496b"/><stop offset="1" stop-color="#505369"/></linearGradient><linearGradient x1="288.4747" y1="205.82808" x2="288.4747" y2="216.02156" gradientUnits="userSpaceOnUse" id="color-15"><stop offset="0" stop-color="#53486b"/><stop offset="1" stop-color="#505569"/></linearGradient><linearGradient x1="189.50793" y1="229.21602" x2="200.08551" y2="229.21602" gradientUnits="userSpaceOnUse" id="color-16"><stop offset="0" stop-color="#faf0e6"/><stop offset="1" stop-color="#ffceb2"/></linearGradient><linearGradient x1="190.49261" y1="252.56881" x2="182.45954" y2="263.75097" gradientUnits="userSpaceOnUse" id="color-17"><stop offset="0" stop-color="#e49aed"/><stop offset="1" stop-color="#b882e4"/></linearGradient><linearGradient x1="210.74088" y1="212.11394" x2="198.82071" y2="228.70709" gradientUnits="userSpaceOnUse" id="color-18"><stop offset="0" stop-color="#eeeafa"/><stop offset="1" stop-color="#eed9f4"/></linearGradient><linearGradient x1="208.10783" y1="235.65793" x2="193.69182" y2="255.72541" gradientUnits="userSpaceOnUse" id="color-19"><stop offset="0" stop-color="#eed8f4"/><stop offset="1" stop-color="#e399ed"/></linearGradient><linearGradient x1="224.84633" y1="181.26073" x2="224.84633" y2="206.14109" gradientUnits="userSpaceOnUse" id="color-20"><stop offset="0" stop-color="#deb099"/><stop offset="1" stop-color="#dfc0ac"/></linearGradient><linearGradient x1="249.04561" y1="151.35125" x2="249.04561" y2="199.2144" gradientUnits="userSpaceOnUse" id="color-21"><stop offset="0" stop-color="#deb099"/><stop offset="1" stop-color="#dfc0ac"/></linearGradient><linearGradient x1="284.5408" y1="163.82683" x2="284.5408" y2="191.76133" gradientUnits="userSpaceOnUse" id="color-22"><stop offset="0" stop-color="#deb099"/><stop offset="1" stop-color="#dfc0ac"/></linearGradient><radialGradient cx="223.24874" cy="227.13788" r="10.88076" gradientUnits="userSpaceOnUse" id="color-23"><stop offset="0" stop-color="#f7c1c9"/><stop offset="1" stop-color="#f7c1c9" stop-opacity="0"/></radialGradient><radialGradient cx="232.46521" cy="227.53985" r="12.07215" gradientUnits="userSpaceOnUse" id="color-24"><stop offset="0" stop-color="#f7c2cb"/><stop offset="1" stop-color="#f7c2cb" stop-opacity="0"/></radialGradient><radialGradient cx="239.7886" cy="224.89343" r="10.28506" gradientUnits="userSpaceOnUse" id="color-25"><stop offset="0" stop-color="#f7d1d7"/><stop offset="1" stop-color="#f7d1d7" stop-opacity="0"/></radialGradient><radialGradient cx="299.21443" cy="227.14034" r="11.96384" gradientUnits="userSpaceOnUse" id="color-26"><stop offset="0" stop-color="#f7d6db"/><stop offset="1" stop-color="#f7d6db" stop-opacity="0"/></radialGradient><radialGradient cx="292.23651" cy="225.92037" r="11.96384" gradientUnits="userSpaceOnUse" id="color-27"><stop offset="0" stop-color="#f7c9d0"/><stop offset="1" stop-color="#f7c9d0" stop-opacity="0"/></radialGradient><radialGradient cx="300.5864" cy="226.54804" r="11.96384" gradientUnits="userSpaceOnUse" id="color-28"><stop offset="0" stop-color="#f7d1d7"/><stop offset="1" stop-color="#f7d1d7" stop-opacity="0"/></radialGradient><radialGradient cx="222.59068" cy="224.39766" r="2.73733" gradientUnits="userSpaceOnUse" id="color-29"><stop offset="0" stop-color="#fff8f8"/><stop offset="1" stop-color="#fff8f8" stop-opacity="0"/></radialGradient><radialGradient cx="303.85492" cy="222.37385" r="2.85354" gradientUnits="userSpaceOnUse" id="color-30"><stop offset="0" stop-color="#fff8f8"/><stop offset="1" stop-color="#fff8f8" stop-opacity="0"/></radialGradient><linearGradient x1="244.71789" y1="133.20328" x2="244.71789" y2="144.48164" gradientUnits="userSpaceOnUse" id="color-31"><stop offset="0" stop-color="#4a4b6a"/><stop offset="1" stop-color="#534f5e"/></linearGradient><linearGradient x1="265.87877" y1="133.15855" x2="265.87877" y2="142.77082" gradientUnits="userSpaceOnUse" id="color-32"><stop offset="0" stop-color="#595465"/><stop offset="1" stop-color="#51516d"/></linearGradient></defs><g transform="translate(-161.09647,-123.87482)"><g data-paper-data="{&quot;isPaintingLayer&quot;:true}" fill-rule="nonzero" stroke-linejoin="miter" stroke-miterlimit="10" stroke-dasharray="" stroke-dashoffset="0" style="mix-blend-mode: normal"><path d="M198.48655,185.35173c0,0 -4.76746,15.10894 -4.57668,32.84335c-0.07738,19.28591 1.0151,21.14509 0.03403,21.66118c-2.94886,4.40864 -13.71721,10.20489 -16.17743,13.06698c-3.13399,-2.36365 -15.15897,-12.92313 -14.41131,-28.93294c0.39521,-8.46289 3.50367,-7.70863 10.86551,-17.80798c7.42426,-0.92634 12.86033,-2.15626 16.83927,-5.58712c2.08506,-2.13309 4.93002,-13.43473 7.35307,-15.50935c0.31288,-0.26788 0.23834,-0.59735 0.23834,-0.59735" fill="url(#color-1)" stroke="#826742" stroke-width="0" stroke-linecap="round"/><path d="M314.55923,181.9219c7.85022,48.10251 1.80364,52.62614 19.39019,64.49787c9.37158,3.48192 4.36053,8.81953 1.14599,8.64553c-0.59774,0.03538 0.57587,-5.08932 -2.10034,-7.19454c0,0 2.63538,2.07513 1.74165,7.51837c-0.2856,1.44969 -3.43916,3.04911 -2.68745,1.0872c-1.61629,3.45609 -8.7992,0.7637 -7.74384,0.10148c3.37623,-0.7958 3.57721,-2.00767 -1.23228,-5.12121c-0.42803,-0.27709 2.18074,1.40401 2.79836,2.14689c-14.08518,-0.91413 -20.61378,0.14958 -21.04037,-2.3999c10.75278,-5.59455 11.05686,-22.10539 0.72622,-38.41924c-0.05447,-0.08601 -0.37205,-1.68317 -0.85941,-4.25469c-2.25649,-11.90618 -8.15236,-44.69961 -8.42149,-45.09973" fill="url(#color-2)" stroke="#826742" stroke-width="1" stroke-linecap="round"/><path d="M292.53145,163.53812c0,0 12.20217,45.35239 12.25896,45.9095c0.12494,1.22551 0.37463,3.25979 0.69328,3.7308c16.14944,23.8711 7.78076,44.80564 -25.65825,42.47c-64.77653,0.75379 -62.1754,-4.88744 -64.99928,-6.34317c-7.78762,-4.01453 -20.89087,-11.03043 -21.22251,-11.45265c-8.61669,-9.4316 -1.20939,-18.05755 0.37934,-18.43414c0.32153,-0.07622 14.40468,-4.76448 18.12854,-6.0047c0.56833,-0.18928 6.3992,-48.34521 6.3992,-48.34521z" fill="#ffecdf" stroke="#826742" stroke-width="1" stroke-linecap="round"/><path d="M295.61573,163.57497c0,0 9.8018,24.38343 9.92132,44.91801c-2.74858,-0.30708 -3.42846,-1.45174 -4.82538,-1.73945c-0.11398,-0.3875 -2.31633,-6.93945 -2.73355,-8.36978c-2.08036,-7.13207 -5.22256,-18.93489 -5.22256,-18.93489c0,0 5.62405,20.05666 5.51537,26.54013c-2.53886,-0.15659 -3.11328,-1.19514 -4.48552,-1.52637c-3.35464,-12.62425 -8.46029,-29.75969 -13.60474,-37.0087c-3.72586,-12.51562 -5.74411,-18.15534 -5.74411,-18.15534c0,0 9.48695,24.14693 10.02622,53.40083c-2.7578,0.43102 -4.79299,0.41728 -7.09028,0.11702c0.4666,-10.45564 -1.77793,-29.3739 -1.77793,-29.3739c0,0 0.70648,16.96341 -1.11696,29.44541c-5.08456,0.58677 -7.65323,-0.28007 -11.09683,-0.04089c-0.13242,-1.77907 -1.03829,-14.67469 -1.03829,-14.67469c0,0 -0.11976,12.45477 -0.13628,14.17282c-1.92242,0.50871 -2.39407,0.85322 -4.17256,0.43593c0.34212,-15.73803 -0.98246,-33.48581 -0.98246,-33.48581c0,0 0.17972,17.65406 -1.19002,33.34431c-1.59169,0.30117 -3.28464,0.06265 -4.40732,0.05231c0.75937,-19.30825 -0.4118,-52.05496 -0.4118,-52.05496c0,0 -1.10544,20.69129 -2.37962,33.52065c-0.22345,2.24989 -2.63819,18.2427 -2.69304,18.79557c-6.80686,0.88689 -10.10701,2.73186 -10.48931,2.55282c-0.4278,-10.97592 0.89383,-33.82442 0.89383,-33.82442c0,0 -3.02116,13.21191 -2.58953,33.32947c-1.7419,1.13964 -6.16529,2.936 -7.23735,2.45864c-1.83999,-27.01791 3.76164,-52.04616 3.76164,-52.04616c0,0 -5.74287,26.72131 -6.97211,53.7756c-3.53744,1.67269 -4.98025,2.73431 -8.77532,3.59046c-0.40568,-0.75201 -1.28659,-0.36823 -1.95928,-0.0581c-0.11224,0.05175 -0.19767,-0.08313 -0.13132,0.76205c0.40143,16.96338 6.71024,41.27884 -1.28069,43.62311c-9.07244,0.73795 -23.67244,0.42376 -16.93587,7.46148c0.26135,0.13726 -4.05472,0.40284 -9.06171,0.27906c-0.12586,-0.41285 0.12463,-2.09738 -0.3643,-3.39005c-1.12807,0.809 -1.36284,3.24331 -1.36284,3.24331c0,0 -1.87018,-0.04843 -1.31499,-3.79222c-3.9995,0.29286 -6.40697,-0.0076 -5.69827,-4.05892c1.21525,-6.94704 17.59933,-12.9165 18.00234,-17.92062c-0.39409,-13.43533 -1.82083,-33.50748 4.19617,-53.91834c3.54914,-13.12566 4.01082,-11.05489 8.59954,-20.58094c0.31972,-2.84116 0.07967,-4.09298 -0.02398,-6.52076c-0.07603,-1.78109 -3.54785,-2.83511 -8.37282,-3.77033c17.97311,-23.01964 111.67755,-43.95076 122.75288,54.09364c-0.93388,0.9166 -3.0582,1.40281 -3.82524,1.61632c-0.31721,0.0883 -0.35237,-10.48668 -3.27181,-26.47913" fill="url(#color-3)" stroke="#826742" stroke-width="1" stroke-linecap="round"/><path d="M212.97417,220.89264c1.45634,15.81651 5.02006,33.95675 -1.78419,35.95289c-6.52216,0.53051 -15.90105,0.51726 -18.15564,3.08267c-11.29896,-1.73539 -11.59351,-3.1582 -13.3014,-8.37856c5.14206,-4.83962 14.41937,-9.13192 14.72139,-12.88208c-0.14316,-4.88055 -0.42259,-10.63691 -0.43195,-16.96714z" fill="none" stroke="#826742" stroke-width="0" stroke-linecap="round"/><path d="M169.33735,164.37867c-0.40118,-3.40467 -0.27087,-6.61574 0.00799,-9.70141c0.88719,-9.81675 3.27794,-18.36416 -5.15858,-27.83751c-0.33061,-0.59879 -0.30015,-1.37712 0.39112,-1.82124c6.37064,-3.20648 16.43265,6.1922 19.0909,14.33226c2.17979,6.67493 5.17345,10.83374 10.91881,13.43015z" fill="url(#color-4)" stroke="#826742" stroke-width="0" stroke-linecap="round"/><path d="M198.81754,184.13005c-3.90131,5.99745 -4.05294,9.32796 -6.56809,14.57256c-1.27879,2.16909 -3.24879,3.51854 -4.27888,3.91114c-19.831,7.55839 -25.32652,-0.37427 -26.3337,-2.33383c-0.62752,-2.66532 6.23331,-1.3891 10.90885,-3.77406c-0.03485,0.06966 -0.66573,1.35393 -0.66573,1.35393c0,0 0.94209,-0.97032 1.16525,-2.90993c0.98155,-8.53109 2.78031,-13.9342 8.22663,-16.3985" fill="url(#color-5)" stroke="#826742" stroke-width="0" stroke-linecap="round"/><path d="M177.28601,175.79521c-3.51516,-3.26957 -6.13137,-7.27806 -8.06959,-11.58399c-1.63729,-14.24098 6.00861,-25.07097 -5.04449,-37.55332c-0.32892,-0.59972 -0.29625,-1.37797 0.39626,-1.82013c6.37967,-3.18847 16.41508,6.23861 19.05033,14.38615c2.09969,6.49173 4.97447,10.61011 10.3996,13.23507z" fill="url(#color-6)" stroke="#826742" stroke-width="0" stroke-linecap="round"/><path d="M198.39943,183.86727c-9.27369,-0.39016 -16.09256,-3.54582 -21.09258,-8.1965c4.62737,-9.03647 6.49695,-12.37633 16.73209,-23.33623c2.62663,1.2709 5.85108,2.19172 9.87484,2.86235c3.47025,1.51282 3.58362,1.38524 3.17999,9.09711c0,0 -0.17344,0.13756 -0.31925,0.48521c-1.76878,4.21746 -6.04674,9.7556 -8.08745,18.44052c-0.09118,0.38806 -0.28763,0.64755 -0.28763,0.64755z" fill="url(#color-7)" stroke="#826742" stroke-width="0" stroke-linecap="round"/><path d="M201.53178,171.83435c0,0 -0.61965,3.97296 -2.56658,6.93936" fill="none" stroke="#826742" stroke-width="1" stroke-linecap="round"/><path d="M200.19791,172.54482c0,0 -0.23248,2.15416 -1.75281,4.70294" fill="none" stroke="#826742" stroke-width="1" stroke-linecap="round"/><path d="M198.54509,173.64661c0,0 -0.27427,1.80838 -1.4364,3.76909" fill="none" stroke="#826742" stroke-width="1" stroke-linecap="round"/><path d="M196.75457,173.09572c0,0 -0.21269,1.50221 -0.87783,2.21041" fill="none" stroke="#826742" stroke-width="1" stroke-linecap="round"/><path d="M194.96409,173.09572c0,0 0.01796,0.8629 -0.33512,1.20588" fill="none" stroke="#826742" stroke-width="1" stroke-linecap="round"/><path d="M193.49165,172.55243c0,0 0.05087,0.42288 -0.2138,0.58735" fill="none" stroke="#826742" stroke-width="1" stroke-linecap="round"/><path d="M198.77715,184.29173c-3.90131,5.99745 -4.05294,9.32796 -6.56809,14.57256c-1.27879,2.16909 -3.24879,3.51854 -4.27888,3.91115c-19.831,7.55839 -25.32652,-0.37427 -26.3337,-2.33383c-0.62752,-2.66532 10.30027,-2.58983 10.94759,-3.77406c-0.03484,0.06966 -0.65067,1.1291 -0.65067,1.1291c0,0 -0.18351,0.19861 -0.04898,0.02541c0.27901,-0.35926 1.00988,-1.40183 1.16045,-2.71051c0.98155,-8.53109 2.39561,-13.80597 7.84193,-16.27026" fill="none" stroke="#826742" stroke-width="1" stroke-linecap="round"/><path d="M191.74978,194.7292c-1.36748,-0.45073 -2.2523,-2.31854 -2.2523,-2.31854" fill="none" stroke="#826742" stroke-width="1" stroke-linecap="round"/><path d="M190.28071,195.81382c-0.90752,-0.45624 -1.86781,-1.85378 -1.86781,-1.85378" fill="none" stroke="#826742" stroke-width="1" stroke-linecap="round"/><path d="M189.36948,197.02633c-0.66879,-0.11244 -1.57636,-1.43944 -1.57636,-1.43944" fill="none" stroke="#826742" stroke-width="1" stroke-linecap="round"/><path d="M188.0753,198.00956c-0.78532,-0.13697 -1.05684,-1.0282 -1.05684,-1.0282" fill="none" stroke="#826742" stroke-width="1" stroke-linecap="round"/><path d="M318.74572,213.69382c0.87532,8.70156 1.43011,14.60187 2.66104,19.16499c-4.87886,0.58401 -4.04177,0.67492 -8.02382,0.70865c-0.63498,-6.06181 -2.9258,-12.86231 -6.88443,-19.62936" fill="url(#color-8)" stroke="#826742" stroke-width="0" stroke-linecap="round"/><path d="M321.8101,232.86822c0.80574,2.81072 1.88779,4.84163 3.50045,6.97542c-5.91267,0.71861 -7.09778,0.7205 -11.99858,0.59364c0.33796,-2.20995 0.19289,-5.40445 -0.08851,-7.93231" fill="url(#color-9)" stroke="#826742" stroke-width="0" stroke-linecap="round"/><path d="M186.106,199.82106c-0.36135,-0.09418 -0.51017,-0.50156 -0.51017,-0.50156" fill="none" stroke="#826742" stroke-width="1" stroke-linecap="round"/><path d="M198.55525,184.07676c-15.7952,-0.61983 -24.49331,-9.28058 -29.21795,-19.69802c-1.67752,-14.2363 5.93775,-25.08785 -5.15059,-37.53892c-0.33061,-0.59879 -0.30015,-1.37712 0.39112,-1.82124c6.37064,-3.20648 16.43265,6.1922 19.0909,14.33226c3.14349,9.62592 7.97953,14.01919 20.31984,16.04007c3.47452,1.50301 3.58751,1.37511 3.20567,9.08808c0,0 -0.17306,0.13806 -0.31788,0.48612c-1.75686,4.22244 -6.01916,9.77264 -8.03532,18.4633c-0.09009,0.38832 -0.2858,0.64836 -0.2858,0.64836z" fill="none" stroke="#826742" stroke-width="1" stroke-linecap="round"/><path d="M227.43543,174.1979c0,0 9.47003,-9.33458 24.43487,-9.7358" fill="none" stroke="#826742" stroke-width="1" stroke-linecap="round"/><path d="M279.13374,164.31647c9.76616,-0.30183 19.81225,10.39436 19.81225,10.39436" fill="none" stroke="#826742" stroke-width="1" stroke-linecap="round"/><path d="M215.44171,242.9493c1.947,5.15017 11.09718,9.43938 13.72556,10.84131c-10.55551,-0.88904 -13.84281,-4.08981 -13.84281,-4.08981c0,0 0.31921,-4.22611 0.11725,-6.75149z" fill="url(#color-10)" stroke="#826742" stroke-width="0" stroke-linecap="round"/><path d="M283.79093,186.8151c0.89169,-0.30002 3.81313,0.49849 3.81313,0.49849" fill="none" stroke="#826742" stroke-width="1" stroke-linecap="round"/><path d="M280.27959,201.24385c0,0 6.68781,0.59197 10.13808,2.23038" fill="none" stroke="#826742" stroke-width="1" stroke-linecap="round"/><path d="M238.62653,203.87737c0.91039,-1.74911 11.02893,-1.64919 11.02893,-1.64919" fill="none" stroke="#826742" stroke-width="1" stroke-linecap="round"/><path d="M307.76388,149.91451c1.34687,-16.15781 11.58825,-17.70805 13.78016,-17.85453c1.14653,-0.07662 1.27502,1.37662 0.66046,2.34757c-1.78744,2.82396 -4.05877,11.05031 -0.40131,19.26779c2.53539,5.69643 2.44814,12.17334 0.36367,17.21771z" fill="url(#color-11)" stroke="#826742" stroke-width="0" stroke-linecap="round"/><path d="M314.9233,178.39396c0,0 -0.39352,-0.30408 -0.50203,-0.83447c-1.2125,-5.92688 -12.64888,-21.02471 -12.64888,-21.02471c1.73026,0.11321 6.1959,-3.80606 6.53279,-7.84756c9.12814,11.89684 7.20123,10.39297 13.8331,21.92958c-1.47673,3.57364 -3.95584,6.42831 -7.21497,7.77716z" fill="url(#color-12)" stroke="#826742" stroke-width="0" stroke-linecap="round"/><path d="M314.70178,178.4105c0,0 -0.39065,-0.30777 -0.49414,-0.83916c-1.15656,-5.93804 -12.45005,-21.14305 -12.45005,-21.14305c1.72912,0.12952 5.6527,-2.80184 6.02769,-6.83999c1.49918,-16.14438 11.75472,-17.59799 13.94791,-17.72379c1.14721,-0.0658 1.26199,1.38858 0.63829,2.35369c-1.81398,2.80699 -4.1628,11.01155 -0.58299,19.26315c4.23959,9.77243 0.8032,21.7506 -7.0867,24.92914z" fill="none" stroke="#826742" stroke-width="1" stroke-linecap="round"/><path d="M311.06886,167.51236c1.5625,2.34251 2.57762,5.88819 2.57762,5.88819" fill="none" stroke="#826742" stroke-width="1" stroke-linecap="round"/><path d="M313.64555,168.76663c0.74372,1.06383 0.79777,2.86316 0.79777,2.86316" fill="none" stroke="#826742" stroke-width="1" stroke-linecap="round"/><path d="M314.89923,168.49801c0.80489,1.10202 0.60653,2.77766 0.60653,2.77766" fill="none" stroke="#826742" stroke-width="1" stroke-linecap="round"/><path d="M315.80715,168.21529c0.3995,0.48819 0.40691,1.28969 0.40691,1.28969" fill="none" stroke="#826742" stroke-width="1" stroke-linecap="round"/><path d="M316.98618,166.9178c0.58668,0.6799 0.56684,2.23299 0.56684,2.23299" fill="none" stroke="#826742" stroke-width="1" stroke-linecap="round"/><path d="M315.0885,179.1848c-0.1238,-0.50494 -0.21981,-0.8966 -0.21981,-0.8966l3.02457,-1.61919c5.71468,4.58433 6.9513,11.67495 4.51872,18.5041c-0.72674,1.32128 -0.28045,4.74762 0.96096,4.99309c3.32136,0.09151 4.0513,-0.1202 4.65071,0.46775c0.72567,3.36011 -4.53323,4.56254 -6.31014,4.91837c0,0 -0.06863,-0.18055 -0.11318,-0.45048c-2.19777,-13.31575 -6.51183,-25.91704 -6.51183,-25.91704z" fill="url(#color-13)" stroke="#826742" stroke-width="1" stroke-linecap="round"/><path d="M221.05541,213.54368c2.40339,-1.94264 15.55046,-7.99712 27.44521,-7.38143c0.28845,0.01493 0.37008,0.14387 0.48739,0.40781c0.45316,0.20561 0.74213,4.17971 2.12283,5.17228c0.33527,0.24103 0.03957,0.20424 -0.37327,0.19619c-1.7219,-0.03357 -6.46787,-0.04332 -6.34795,0.7504c-0.91949,0.12245 -2.40442,-0.13417 -2.71528,0.42105c-1.11986,-0.07247 -2.38634,0.06406 -2.53089,0.54013c-0.90492,-0.26083 -2.14813,0.01642 -2.13,0.43136c-1.1365,-0.05765 -2.07403,0.02189 -2.07707,0.56894c-0.76896,0.00959 -2.52945,-0.04475 -2.22251,0.56592c-0.8989,-0.03316 -3.23579,-0.13019 -2.94197,0.56613c-2.52381,-0.03169 -7.79443,0.90106 -7.87356,1.63713c-0.86078,0.21634 -1.93486,0.05908 -2.37672,0.17621c-0.29447,0.07806 -0.41568,-0.04136 -0.19232,-0.24853c2.203,-2.04339 1.93176,-3.00169 1.60885,-3.37655c-0.17396,-0.20194 0.11727,-0.42705 0.11727,-0.42705z" fill="url(#color-14)" stroke="#554c43" stroke-width="1" stroke-linecap="round"/><path d="M276.01704,206.06945c12.14939,-1.42794 23.29061,3.94535 23.29061,3.94535c0,0 -1.07585,3.85697 1.87843,5.80978c0.17951,0.11865 -0.16211,0.2615 -0.35462,0.16533c-0.81146,-0.40537 -2.63537,-1.40622 -2.7714,-0.72112c-0.58416,-0.21823 -1.96828,-1.34848 -2.01255,-0.74898c-0.94844,-0.52415 -2.66358,-1.01128 -3.02502,-0.6218c-0.55997,-0.3543 -2.35877,-0.91754 -2.61164,-0.40561c-0.81705,-0.47388 -2.01295,-0.80278 -2.08885,-0.41676c-0.98428,-0.77134 -2.32774,-0.82809 -2.68673,-0.39598c-0.87851,-0.85817 -3.63555,-1.37084 -4.0678,-0.97765c-0.80179,-0.58614 -2.76501,-0.76301 -4.3284,-1.04009c-0.2331,-0.04132 -0.43582,-0.0398 -0.38469,-0.27095c0.49595,-2.2419 -0.1686,-3.36791 -0.67207,-3.8719z" fill="url(#color-15)" stroke="#554c43" stroke-width="1" stroke-linecap="round"/><path d="M303.68514,179.48256c1.14965,8.10187 1.61073,27.90492 1.61073,27.90492" fill="none" stroke="#826742" stroke-width="1" stroke-linecap="round"/><path d="M213.47985,211.58422c0,0 0.03247,-0.09274 0.03682,-0.27407c0.53766,-22.43546 0.97561,-23.72172 4.29124,-32.86629" fill="none" stroke="#b6adc8" stroke-width="3.5" stroke-linecap="round"/><path d="M314.24089,190.12363c0,0 1.30738,8.05461 0.51282,20.09028" fill="none" stroke="#826742" stroke-width="1" stroke-linecap="round"/><path d="M314.6441,245.01971c9.36517,6.18602 15.48671,0.75566 19.97747,8.95466c0.24784,0.45249 -0.07172,1.10171 0.06858,1.69659" fill="none" stroke="#826742" stroke-width="1" stroke-linecap="round"/><path d="M316.47227,222.85045l-0.18595,-1.67353" fill="none" stroke="#826742" stroke-width="1" stroke-linecap="round"/><path d="M194.48618,238.84915c-2.94886,5.02839 -14.80178,11.28946 -16.79718,13.99661c-4.23634,-3.41443 -3.13669,-2.87321 -5.58107,-5.75952c-1.82479,-8.70854 10.52575,-10.934 16.6227,-17.44034c1.00334,0.39683 -4.11031,8.10761 -7.31659,10.59807c3.79218,2.05025 9.27381,-5.92098 9.27381,-5.92098" fill="#bcacd9" stroke="#826742" stroke-width="0" stroke-linecap="round"/><path d="M328.35751,249.05448c-5.84343,-0.28208 -13.51852,-8.63444 -13.73787,-18.1253" fill="none" stroke="#826742" stroke-width="1" stroke-linecap="round"/><path d="M327.1289,241.28368c0,0 -3.96687,-3.08722 -6.76927,-8.07219c-1.04886,-1.86572 -1.93459,-3.99729 -2.38819,-6.33231" fill="none" stroke="#826742" stroke-width="1" stroke-linecap="round"/><path d="M199.17643,241.01994c-3.16791,-1.72056 -5.43723,-2.99475 -5.57278,-3.16732c-8.61669,-9.4316 -1.20939,-18.05755 0.37934,-18.43414c0.13787,-0.03268 2.80589,-0.91331 6.10251,-2.00648z" fill="url(#color-16)" stroke="#826742" stroke-width="1" stroke-linecap="round"/><path d="M197.4337,257.90142c-4.38042,0.85055 -6.76761,2.5151 -3.21628,6.23155c0.26124,0.13749 -4.05506,0.39937 -9.06195,0.27131c-0.12551,-0.41296 0.12643,-2.09727 -0.3614,-3.39036c-1.12876,0.80804 -1.36562,3.24214 -1.36562,3.24214c0,0 -1.87014,-0.05003 -1.31174,-3.79334c-3.99975,0.28944 -6.40696,-0.01308 -5.6948,-4.0638c0.52936,-3.01094 3.90885,-5.83576 7.60123,-8.47761" fill="url(#color-17)" stroke="#826742" stroke-width="0" stroke-linecap="round"/><path d="M212.31037,213.31279c0.19113,8.3799 1.69576,19.06668 2.33406,27.50034c-11.64513,-8.17935 -18.02442,-13.48228 -20.63609,-15.0812c-0.20087,-8.11406 -0.22727,-14.92116 1.11516,-24.83721" fill="url(#color-18)" stroke="#826742" stroke-width="0" stroke-linecap="round"/><path d="M214.77094,240.44457c0.65383,8.63889 0.2659,15.45046 -3.77861,16.63322c-4.28572,0.34491 -9.80455,0.45401 -13.72597,1.21543c-4.92132,-3.75062 -9.27042,-7.02312 -13.41053,-9.98013c4.82563,-3.45267 10.18569,-6.59285 10.41643,-9.42759c-0.08924,-3.13406 -0.01007,-9.63818 -0.10355,-13.41457" fill="url(#color-19)" stroke="#826742" stroke-width="0" stroke-linecap="round"/><path d="M219.78362,162.02409c0,0 -4.16842,16.07092 -5.49659,49.65255c-0.04863,0.43924 -0.08184,0.73927 -0.08184,0.73927l-1.48758,0.18595c0,0 -0.08735,-0.38364 -0.04747,-0.91379c-0.32299,-21.986 2.80657,-39.60283 2.80657,-39.60283" fill="none" stroke="#826742" stroke-width="1" stroke-linecap="round"/><path d="M189.0275,255.99765c-0.05636,-2.77454 1.20309,-4.69672 1.20309,-4.69672" fill="none" stroke="#826742" stroke-width="1" stroke-linecap="round"/><path d="M182.22216,260.69036c4.58123,-7.00226 9.03362,-2.9595 18.70761,-7.4098" fill="none" stroke="#826742" stroke-width="1" stroke-linecap="round"/><path d="M203.15727,236.32014c0,0 1.90862,6.88686 0.50367,12.07977" fill="none" stroke="#826742" stroke-width="1" stroke-linecap="round"/><path d="M192.21538,255.50912c-2.10415,-5.54733 5.84204,-9.52053 5.84204,-9.52053" fill="none" stroke="#826742" stroke-width="1" stroke-linecap="round"/><path d="M223.29338,206.10687c-0.26036,-9.78042 3.12021,-24.84615 3.12021,-24.84615v19.55312c0,0 -3.10607,5.82405 -3.12021,5.29304z" fill="url(#color-20)" stroke="#826742" stroke-width="0" stroke-linecap="round"/><path d="M246.88637,199.2144l4.31848,-47.86313c0,0 -0.03135,29.61625 -0.00761,32.98702c-1.07532,0.73014 -4.31087,14.87612 -4.31087,14.87612z" fill="url(#color-21)" stroke="#826742" stroke-width="0" stroke-linecap="round"/><path d="M290.04654,191.76133c-1.74447,-4.09969 -7.65269,-13.53954 -7.65269,-13.53954l-3.35881,-14.39493c0,0 8.52927,16.51037 11.01151,27.93447z" fill="url(#color-22)" stroke="#826742" stroke-width="0" stroke-linecap="round"/><path d="M188.96306,256.09693c0,0 -2.05776,-1.23695 -1.39805,-6.67557" fill="none" stroke="#826742" stroke-width="1" stroke-linecap="round"/><path d="M196.52268,233.84687c-1.49093,5.52618 -3.13145,6.94791 -3.13145,6.94791" fill="none" stroke="#826742" stroke-width="1" stroke-linecap="round"/><path d="M198.48655,185.35173c0,0 -4.76746,15.10894 -4.57668,32.84335c-0.07738,19.28591 1.0151,21.14509 0.03403,21.66118c-2.94886,4.40864 -13.71721,10.20489 -16.17743,13.06698c-3.13399,-2.36365 -15.15897,-12.92313 -14.41131,-28.93294c0.39521,-8.46289 3.50367,-7.70863 10.86551,-17.80798c7.42426,-0.92634 12.86033,-2.15626 16.83927,-5.58712c2.08506,-2.13309 4.93002,-13.43473 7.35307,-15.50935c0.31288,-0.26788 0.23834,-0.59735 0.23834,-0.59735" fill="none" stroke="#826742" stroke-width="1" stroke-linecap="round"/><path d="M185.27897,242.23021c0,0 -4.96712,3.12284 -10.15375,2.43354" fill="none" stroke="#826742" stroke-width="1" stroke-linecap="round"/><path d="M192.27336,198.55725c-6.20046,17.65665 -3.17784,13.55479 -12.26764,28.36809" fill="none" stroke="#826742" stroke-width="1" stroke-linecap="round"/><path d="M187.52105,202.8628c-1.81524,5.801 -4.05393,8.4879 -4.05393,8.4879" fill="none" stroke="#826742" stroke-width="1" stroke-linecap="round"/><path d="M188.69573,203.45163c-0.96367,3.05895 -3.1036,6.70378 -3.1036,6.70378" fill="none" stroke="#826742" stroke-width="1" stroke-linecap="round"/><path d="M174.98023,206.25629c-0.55632,3.81494 -4.26307,10.40691 -4.26307,10.40691" fill="none" stroke="#826742" stroke-width="1" stroke-linecap="round"/><path d="M246.79733,186.33502c0,0 3.0341,-0.25662 4.30618,0.11742" fill="none" stroke="#826742" stroke-width="1" stroke-linecap="round"/><path d="M210.94222,241.21505c-9.13645,-2.7629 -11.03321,-11.30523 -4.2365,-19.07986c6.79669,-7.77461 19.71307,-11.8374 28.84954,-9.07449c9.13645,2.7629 11.03321,11.30523 4.2365,19.07986c-6.79669,7.77461 -19.71307,11.8374 -28.84953,9.07451z" fill="url(#color-23)" stroke="none" stroke-width="0" stroke-linecap="butt"/><path d="M218.8112,243.15841c-10.13686,-3.06543 -12.2413,-12.5431 -4.70039,-21.16901c7.54091,-8.62591 21.87156,-13.13355 32.00843,-10.06812c10.13686,3.06543 12.24129,12.54311 4.70039,21.16902c-7.5409,8.62591 -21.87157,13.13354 -32.00843,10.06812z" fill="url(#color-24)" stroke="none" stroke-width="0" stroke-linecap="butt"/><path d="M228.15584,238.19991c-8.63625,-2.61164 -10.42916,-10.6863 -4.00456,-18.03527c6.42459,-7.34897 18.63383,-11.18933 27.27009,-8.57769c8.63625,2.61164 10.42916,10.6863 4.00457,18.03527c-6.42459,7.34897 -18.63383,11.18933 -27.27009,8.5777z" fill="url(#color-25)" stroke="none" stroke-width="0" stroke-linecap="butt"/><path d="M312.74595,242.6188c-10.04592,3.03791 -24.24801,-1.42929 -31.72126,-9.9778c-7.47325,-8.54852 -5.38769,-17.94117 4.65822,-20.97909c10.04592,-3.03793 24.24801,1.42927 31.72126,9.97778c7.47326,8.54852 5.3877,17.94117 -4.65821,20.97909z" data-paper-data="{&quot;index&quot;:null}" fill="url(#color-26)" stroke="none" stroke-width="0" stroke-linecap="butt"/><path d="M305.76803,241.39882c-10.04592,3.03791 -24.24801,-1.42929 -31.72126,-9.9778c-7.47325,-8.54852 -5.38769,-17.94117 4.65822,-20.97909c10.04592,-3.03793 24.24801,1.42927 31.72126,9.97778c7.47326,8.54852 5.3877,17.94117 -4.65821,20.97909z" data-paper-data="{&quot;index&quot;:null}" fill="url(#color-27)" stroke="none" stroke-width="0" stroke-linecap="butt"/><path d="M314.11792,242.02649c-10.04592,3.03791 -24.24801,-1.42929 -31.72126,-9.9778c-7.47325,-8.54852 -5.38769,-17.94117 4.65822,-20.97909c10.04592,-3.03793 24.24801,1.42927 31.72126,9.97778c7.47326,8.54852 5.3877,17.94117 -4.65821,20.97909z" data-paper-data="{&quot;index&quot;:null}" fill="url(#color-28)" stroke="none" stroke-width="0" stroke-linecap="butt"/><path d="M236.07096,225.13739l9.8281,5.4453" fill="none" stroke="#e9bcc3" stroke-width="1" stroke-linecap="round"/><path d="M232.81134,226.43115l9.81058,4.90529" fill="none" stroke="#e9bcc3" stroke-width="1" stroke-linecap="round"/><path d="M237.47927,232.44409l-8.5447,-4.66794" fill="none" stroke="#e9bcc3" stroke-width="1" stroke-linecap="round"/><path d="M224.02929,227.61793l10.12705,5.45911" fill="none" stroke="#e9bcc3" stroke-width="1" stroke-linecap="round"/><path d="M229.17193,232.9188l-9.49411,-5.37999" fill="none" stroke="#e9bcc3" stroke-width="1" stroke-linecap="round"/><path d="M224.10841,232.68144l-7.27882,-3.08558" fill="none" stroke="#e9bcc3" stroke-width="1" stroke-linecap="round"/><path d="M305.97772,225.18724l5.37134,3.82192" fill="none" stroke="#f5c1cd" stroke-width="1" stroke-linecap="round"/><path d="M308.66339,229.42234l-5.88782,-4.44169" fill="none" stroke="#f5c1cd" stroke-width="1" stroke-linecap="round"/><path d="M296.88776,223.63782l9.70974,6.40429" fill="none" stroke="#f5c1cd" stroke-width="1" stroke-linecap="round"/><path d="M293.37573,224.25759l7.64383,5.99111" fill="none" stroke="#f5c1cd" stroke-width="1" stroke-linecap="round"/><path d="M286.55825,223.84441l10.84599,6.09441" fill="none" stroke="#f5c1cd" stroke-width="1" stroke-linecap="round"/><path d="M291.92958,229.83552l-6.301,-4.44169" fill="none" stroke="#f5c1cd" stroke-width="1" stroke-linecap="round"/><path d="M219.85335,224.39766c0,-1.51179 1.22555,-2.73733 2.73733,-2.73733c1.51179,0 2.73733,1.22555 2.73733,2.73733c0,1.51179 -1.22555,2.73733 -2.73733,2.73733c-1.51179,0 -2.73733,-1.22555 -2.73733,-2.73733z" fill="url(#color-29)" stroke="none" stroke-width="0" stroke-linecap="butt"/><path d="M301.0014,222.37385c0,-1.57597 1.27758,-2.85354 2.85355,-2.85354c1.57597,0 2.85354,1.27757 2.85354,2.85354c0,1.57597 -1.27757,2.85354 -2.85354,2.85354c-1.57597,0 -2.85355,-1.27757 -2.85355,-2.85354z" fill="url(#color-30)" stroke="none" stroke-width="0" stroke-linecap="butt"/><path d="M232.88208,204.7847c0,0 -0.76433,-21.29332 3.10367,-33.00499" fill="none" stroke="#b6adc8" stroke-width="2.5" stroke-linecap="round"/><path d="M295.44668,163.30384c0,0 9.8018,24.38343 9.92132,44.91801c-2.74858,-0.30708 -3.42846,-1.45174 -4.82538,-1.73945c-0.11398,-0.3875 -2.31633,-6.93945 -2.73355,-8.36978c-2.08036,-7.13207 -5.22256,-18.93489 -5.22256,-18.93489c0,0 5.62405,20.05666 5.51537,26.54013c-2.53886,-0.15659 -3.11328,-1.19514 -4.48552,-1.52637c-3.35464,-12.62425 -8.46029,-29.75969 -13.60474,-37.0087c-3.72586,-12.51562 -5.74411,-18.15534 -5.74411,-18.15534c0,0 9.48695,24.14693 10.02622,53.40083c-2.7578,0.43102 -4.79299,0.41728 -7.09028,0.11702c0.4666,-10.45564 -1.77793,-29.3739 -1.77793,-29.3739c0,0 0.70648,16.96341 -1.11696,29.44541c-5.08456,0.58677 -7.65323,-0.28007 -11.09683,-0.04089c-0.13242,-1.77907 -1.03829,-14.67469 -1.03829,-14.67469c0,0 -0.11976,12.45477 -0.13628,14.17282c-1.92242,0.50871 -2.39407,0.85322 -4.17256,0.43593c0.34212,-15.73803 -0.98246,-33.48581 -0.98246,-33.48581c0,0 0.17972,17.65406 -1.19002,33.34431c-1.59169,0.30117 -3.28464,0.06265 -4.40732,0.05231c0.75937,-19.30825 -0.4118,-52.05496 -0.4118,-52.05496c0,0 -1.10544,20.69129 -2.37962,33.52065c-0.22345,2.24989 -2.63819,18.2427 -2.69304,18.79557c-6.80686,0.88689 -10.10701,2.73186 -10.48931,2.55282c-0.4278,-10.97592 0.89383,-33.82442 0.89383,-33.82442c0,0 -3.02116,13.21191 -2.58953,33.32947c-1.7419,1.13964 -6.16529,2.936 -7.23735,2.45864c-1.83999,-27.01791 3.76164,-52.04616 3.76164,-52.04616c0,0 -5.67764,27.04749 -6.90687,54.10178c-3.39111,1.76127 -3.66713,2.23567 -8.59213,3.48314c-0.41966,-0.51298 -1.20186,-0.19739 -1.9106,-0.07665c0.07553,3.19171 0.34503,6.66358 0.67959,10.21281c1.4436,15.31431 4.09871,32.06885 -2.38871,33.97204c-9.07244,0.73795 -23.67244,0.42376 -16.93587,7.46148c0.26135,0.13726 -4.05472,0.40284 -9.06171,0.27906c-0.12586,-0.41285 0.12463,-2.09738 -0.3643,-3.39005c-1.12807,0.809 -1.36284,3.24331 -1.36284,3.24331c0,0 -1.87018,-0.04843 -1.31499,-3.79222c-3.9995,0.29286 -6.40697,-0.0076 -5.69827,-4.05892c1.21525,-6.94704 17.59933,-12.9165 18.00234,-17.92062c-0.16334,-5.56871 -0.50409,-12.27759 -0.41867,-19.67818c0.12067,-10.45444 1.09178,-22.28924 4.61484,-34.24016c3.54914,-13.12566 4.01082,-11.05489 8.59954,-20.58094c0.31972,-2.84116 0.07967,-4.09298 -0.02398,-6.52076c-0.07603,-1.78109 -3.54785,-2.83511 -8.37282,-3.77033c9.13041,-11.69407 37.80465,-22.84915 65.26173,-18.14143c26.59188,4.55938 52.04212,23.99761 57.49115,72.23507c-0.93388,0.9166 -3.0582,1.40281 -3.82524,1.61632c-0.31721,0.0883 -0.35237,-10.48668 -3.27181,-26.47913" fill="none" stroke="#826742" stroke-width="1" stroke-linecap="round"/><path d="M289.2202,145.90719c-35.63319,-17.70433 -67.97714,-3.72196 -81.87551,18.72912c0.37727,-1.98484 0.3873,-2.56549 0.39138,-3.64787c18.98321,-33.26136 60.95281,-27.17859 76.07492,-19.106z" fill="#5c4f69" stroke="#4d4940" stroke-width="1" stroke-linecap="round"/><path d="M251.45081,135.42067c0,0 2.52126,1.68302 2.02279,3.02698c-1.02969,2.77621 -7.36927,5.69521 -7.36927,5.69521c0,0 -1.57048,0.40492 -2.76364,0.32938c-3.47562,-2.41454 -5.02385,-5.66716 -7.17756,-6.35381c-0.58593,-0.69741 -0.03015,-2.07062 0.02802,-2.11389c6.25221,-4.65112 10.10189,-2.53923 15.25965,-0.58387z" fill="url(#color-31)" stroke="#4d4940" stroke-width="1" stroke-linecap="round"/><path d="M252.34025,137.2625c-4.28146,0.55934 -7.38627,-0.95755 -7.38627,-0.95755" fill="none" stroke="#4d4940" stroke-width="1" stroke-linecap="round"/><path d="M251.64081,135.21837c0,0 4.46919,-0.93085 7.28488,-0.25027c0.83083,0.20083 1.79184,1.11849 2.13224,1.88579c0.22949,0.51728 0.17691,0.96623 -0.38775,1.08114c-1.36871,0.27854 -3.2191,0.33999 -4.7028,0.33339c-1.42295,-0.00632 -2.50863,-0.07523 -2.50863,-0.07523z" fill="#534f5e" stroke="#4d4940" stroke-width="1" stroke-linecap="round"/><path d="M268.63728,133.15855c1.46768,0.08378 2.35402,1.07959 3.20098,2.28116c0.72524,2.46396 1.02942,3.06134 0.91159,5.80459c-0.10215,0.57176 -1.18836,1.32102 -1.49975,1.46877c-0.96493,0.45787 -6.66555,-1.87797 -9.78504,-4.49774c-1.35186,-1.36446 -3.53143,-3.34115 -1.90121,-4.35686c0.92885,-0.57871 9.07342,-0.69992 9.07342,-0.69992z" fill="url(#color-32)" stroke="#4d4940" stroke-width="1" stroke-linecap="round"/><path d="M263.43433,136.36428c-1.12727,-0.21895 -1.84126,0.24784 -2.93054,-0.11568" fill="none" stroke="#4d4940" stroke-width="1" stroke-linecap="round"/><path d="M220.72392,177.48322l-0.58715,5.38219c0,0 -3.90075,10.3767 -4.22078,10.77177c0.25486,-2.72426 1.16251,-13.14033 1.88313,-17.36643c0.01391,-0.08157 0.15947,-0.13756 0.15947,-0.13756z" fill="#ede9fb" stroke="#826742" stroke-width="0" stroke-linecap="round"/><path d="M308.43764,210.43183c0,0 1.35265,6.05122 1.62807,9.99291c-1.14145,-1.20885 -3.99253,-6.23932 -4.85495,-10.00017c-0.0625,-0.27258 3.22689,0.00727 3.22689,0.00727z" fill="#bdaecf" stroke="none" stroke-width="0" stroke-linecap="round"/><path d="M314.47297,183.16597c8.12079,53.45824 3.31827,52.06537 19.4173,63.19334c9.37158,3.48192 4.36053,8.81953 1.14599,8.64553c-0.59774,0.03538 0.57587,-5.08932 -2.10034,-7.19454c0,0 2.63538,2.07513 1.74165,7.51837c-0.2856,1.44969 -3.43916,3.04911 -2.68745,1.0872c-1.61629,3.45609 -8.7992,0.7637 -7.74384,0.10148c3.37623,-0.7958 3.57721,-2.00767 -1.23228,-5.12121c-0.42803,-0.27709 2.18074,1.40401 2.79836,2.14689c-14.08518,-0.91413 -20.61378,0.14958 -21.04037,-2.3999c11.07192,-5.7606 12.16971,-21.36027 0.8167,-38.23919c-1.88998,-12.30135 2.04917,-15.39482 -9.74566,-49.05828" fill="none" stroke="#826742" stroke-width="1" stroke-linecap="round"/><path d="M308.84841,184.17332c0,0 1.40512,12.47971 -0.68087,26.16648c-0.08797,0.57717 -2.66619,-0.13381 -2.66619,-0.13381" fill="none" stroke="#826742" stroke-width="1" stroke-linecap="round"/></g></g></svg>